<?xml version="1.0" standalone="no"?>
<!DOCTYPE svg PUBLIC "-//W3C//DTD SVG 20010904//EN"
 "http://www.w3.org/TR/2001/REC-SVG-20010904/DTD/svg10.dtd">
<svg version="1.0" xmlns="http://www.w3.org/2000/svg"
 width="512.000000pt" height="512.000000pt" viewBox="0 0 512.000000 512.000000"
 preserveAspectRatio="xMidYMid meet">

<g transform="translate(0.000000,512.000000) scale(0.100000,-0.100000)"
fill="#000000" stroke="none">
<path d="M2474 4626 c-70 -17 -133 -56 -185 -114 -49 -54 -12 27 -1025 -2249
-424 -952 -556 -1258 -565 -1308 -30 -175 69 -369 228 -443 52 -24 69 -27 163
-27 l105 1 674 312 c371 172 687 312 701 312 15 0 328 -137 695 -305 368 -168
688 -311 712 -317 73 -18 174 -5 247 31 154 76 249 266 217 436 -9 50 -200
487 -777 1778 -430 962 -781 1732 -799 1757 -53 72 -128 119 -223 139 -65 14
-102 13 -168 -3z m114 -334 c11 -8 1474 -3262 1508 -3356 25 -69 -11 -133 -67
-119 -13 3 -312 139 -664 301 -352 162 -662 303 -690 313 -31 11 -78 18 -124
19 l-74 0 -696 -320 c-383 -176 -704 -320 -713 -320 -22 0 -48 43 -48 79 0 33
1492 3389 1512 3403 17 10 39 10 56 0z"/>
</g>
</svg>
