<?xml version="1.0" standalone="no"?>
<svg version="1.0" xmlns="http://www.w3.org/2000/svg"
     width="500.000000pt" height="243.000000pt" viewBox="0 0 500.000000 243.000000"
     preserveAspectRatio="xMidYMid meet">

    <circle cx="250" cy="121.5" r="90" transform="scale(2.2, 1) translate(-140, 1)" fill="#FFFFFF"/>
    <g transform="translate(0.000000,243.000000) scale(0.100000,-0.100000)"
       fill="#283790">
        <path d="M2195 2190 c-502 -41 -933 -146 -1270 -310 -189 -92 -282 -155 -396
-269 -154 -154 -204 -267 -197 -440 3 -85 8 -105 39 -171 94 -196 261 -343
554 -485 917 -448 2520 -420 3367 57 326 183 504 426 485 659 -12 138 -70 251
-192 374 -286 287 -803 484 -1490 566 -193 24 -709 34 -900 19z m-160 -562
c28 -14 58 -34 67 -45 30 -33 58 -107 58 -155 l0 -48 -110 0 -110 0 0 30 c0
87 -72 129 -125 75 -55 -54 -15 -113 131 -194 187 -103 219 -144 219 -286 0
-73 -4 -98 -22 -130 -29 -54 -68 -89 -128 -116 -67 -31 -223 -33 -304 -5 -103
36 -161 126 -161 253 l0 53 109 0 109 0 7 -61 c9 -75 29 -99 84 -99 31 0 44 6
60 26 49 62 16 116 -117 195 -199 119 -237 166 -236 294 1 83 25 138 81 184
60 50 104 61 228 58 96 -3 116 -6 160 -29z m685 -4 c72 -41 110 -99 117 -183
l6 -61 -112 0 -111 0 0 30 c0 78 -65 123 -119 83 -37 -28 -39 -72 -6 -111 14
-17 76 -59 137 -94 132 -75 179 -118 202 -183 48 -141 -12 -291 -137 -346 -70
-31 -225 -33 -306 -5 -102 35 -161 126 -161 248 l0 58 109 0 108 0 7 -61 c9
-74 30 -99 85 -99 77 0 106 87 49 147 -13 14 -63 49 -113 78 -190 112 -230
162 -229 290 0 110 50 185 150 225 40 17 69 20 159 18 102 -3 114 -5 165 -34z
m1299 20 c98 -29 161 -115 161 -221 l0 -43 -110 0 -110 0 0 40 c0 49 -35 90
-75 90 -33 0 -75 -41 -75 -73 0 -41 36 -74 160 -147 150 -88 172 -108 200
-172 19 -43 22 -65 18 -128 -7 -118 -52 -186 -153 -232 -41 -19 -67 -23 -150
-23 -151 0 -231 36 -280 126 -22 41 -28 65 -29 123 l-1 71 110 0 110 0 5 -56
c6 -72 29 -99 81 -99 29 0 42 6 58 26 45 58 16 116 -92 180 -219 131 -257 178
-257 308 0 47 7 85 19 112 22 48 79 98 136 118 55 20 208 20 274 0z m-2549
-89 l0 -84 -157 -3 -158 -3 -3 -77 -3 -78 151 0 150 0 0 -90 0 -89 -147 -3
-148 -3 -3 -92 -3 -93 161 0 160 0 0 -95 0 -95 -277 2 -278 3 -3 443 -2 442
280 0 280 0 0 -85z m1654 43 c9 -24 31 -85 49 -137 l34 -94 48 136 48 137 129
0 c121 0 129 -1 124 -18 -4 -10 -56 -126 -116 -257 l-110 -238 0 -189 0 -189
-122 3 -123 3 -5 200 -5 200 -89 190 c-49 105 -99 214 -112 243 l-24 52 129 0
129 0 16 -42z"/>
    </g>
</svg>
