<svg xmlns="http://www.w3.org/2000/svg" width="32" height="32" viewBox="0 0 32 32">
  <path id="square-poll-horizontal-solid" d="M32,36.571A4.576,4.576,0,0,0,27.429,32H4.571A4.576,4.576,0,0,0,0,36.571V59.429A4.576,4.576,0,0,0,4.571,64H27.429A4.576,4.576,0,0,0,32,59.429ZM18.286,41.143A2.283,2.283,0,0,1,16,43.429H9.143a2.286,2.286,0,1,1,0-4.571H16A2.283,2.283,0,0,1,18.286,41.143Zm4.571,4.571a2.286,2.286,0,0,1,0,4.571H9.143a2.286,2.286,0,0,1,0-4.571Zm-9.143,9.143a2.283,2.283,0,0,1-2.286,2.286H9.143a2.286,2.286,0,1,1,0-4.571h2.286A2.283,2.283,0,0,1,13.714,54.857Z" transform="translate(-32 32) rotate(-90)" fill="#f5f6fa"/>
</svg>
