<?xml version="1.0" ?>
<svg style="enable-background:new 0 0 50 50;" version="1.1" viewBox="0 0 50 50" xml:space="preserve"
     xmlns="http://www.w3.org/2000/svg" xmlns:xlink="http://www.w3.org/1999/xlink">
    <circle id="circle" cx="25" cy="25" r="23" fill="#A0E418"/>
    <g id="Layer_1" transform="scale(0.5) translate(25, 25)">
        <path id="drawer" d="M44,1H6C3.243,1,1,3.243,1,6v38c0,2.757,2.243,5,5,5h38c2.757,0,5-2.243,5-5V6C49,3.243,46.757,1,44,1z M47,44   c0,1.654-1.346,3-3,3H6c-1.654,0-3-1.346-3-3V6c0-1.654,1.346-3,3-3h38c1.654,0,3,1.346,3,3V44z"
              fill="#FFFFFF" stroke="#FFFFFF" stroke-width="5"/></g>
    <g/>
</svg>