<svg xmlns="http://www.w3.org/2000/svg" width="142" height="142" viewBox="0 0 142 142">
    <g id="그룹_57" data-name="그룹 57" transform="translate(0 -334)">
        <rect id="사각형_3" data-name="사각형 3" width="142" height="142" transform="translate(0 334)" fill="none"/>
        <text id="Setting" transform="translate(71 460)" fill="#d7dbec" font-size="16" font-family="Poppins-SemiBold, Poppins" font-weight="600" letter-spacing="0.004em"><tspan x="-29.152" y="0">Setting</tspan></text>
        <path id="패스_4" data-name="패스 4" d="M55.193,34.94A22.752,22.752,0,0,0,55.409,32a22.754,22.754,0,0,0-.216-2.94L61.7,24.11a1.486,1.486,0,0,0,.37-1.92L55.9,11.81a1.571,1.571,0,0,0-1.881-.66l-7.68,3a22.693,22.693,0,0,0-5.212-2.94L39.957,3.26A1.491,1.491,0,0,0,38.446,2H26.109A1.491,1.491,0,0,0,24.6,3.26l-1.172,7.95a23.864,23.864,0,0,0-5.212,2.94l-7.68-3a1.524,1.524,0,0,0-1.881.66L2.484,22.19a1.452,1.452,0,0,0,.37,1.92l6.508,4.95A23.154,23.154,0,0,0,9.146,32a23.154,23.154,0,0,0,.216,2.94L2.855,39.89a1.486,1.486,0,0,0-.37,1.92L8.653,52.19a1.571,1.571,0,0,0,1.881.66l7.68-3a22.693,22.693,0,0,0,5.212,2.94L24.6,60.74A1.491,1.491,0,0,0,26.109,62H38.446a1.491,1.491,0,0,0,1.511-1.26l1.172-7.95a23.864,23.864,0,0,0,5.212-2.94l7.68,3a1.524,1.524,0,0,0,1.881-.66L62.07,41.81a1.486,1.486,0,0,0-.37-1.92ZM32.277,42.5A10.662,10.662,0,0,1,21.483,32a10.8,10.8,0,0,1,21.589,0A10.662,10.662,0,0,1,32.277,42.5Z" transform="translate(38.729 366)" fill="#e6e9f4"/>
    </g>
</svg>
