<svg xmlns="http://www.w3.org/2000/svg" width="80" height="80" viewBox="0 0 79 79">
    <g id="그룹_41" data-name="그룹 41" transform="scale(0.9, 0.9) translate(5, 5)">
        <circle id="타원_11" data-name="타원 11" cx="39.5" cy="39.5" r="39.5" transform="translate(-0.26 -0.321)" fill="#74dc2e"/>
        <path id="path1312" d="M12.868,48.768,0,35.9V27.718c0-4.5.049-8.182.109-8.182s4.39,4.282,9.624,9.516c5.338,5.339,9.626,9.516,9.767,9.516.239,0,.254-1.032.289-19.284L19.825,0H31.936l.037,19.212c.035,18.184.05,19.212.289,19.212.141,0,4.4-4.146,9.7-9.444,5.194-5.194,9.492-9.444,9.552-9.444s.108,3.681.108,8.18V35.9L38.749,48.767c-7.077,7.078-12.9,12.87-12.94,12.87S19.945,55.846,12.868,48.768Z" transform="translate(70.311 13.754) rotate(90)" fill="#fff"/>
    </g>
</svg>
